<?xml version="1.0" standalone="no"?><!DOCTYPE svg PUBLIC "-//W3C//DTD SVG 1.1//EN" "http://www.w3.org/Graphics/SVG/1.1/DTD/svg11.dtd"><svg t="1556966822536" class="icon" style="" viewBox="0 0 1024 1024" version="1.1" xmlns="http://www.w3.org/2000/svg" p-id="12936" xmlns:xlink="http://www.w3.org/1999/xlink" width="200" height="200"><defs><style type="text/css"></style></defs><path d="M553.9 921.8H293.4c-107 0-194.1-88.1-194.1-196.4V272.8c0-108.3 87.1-196.4 194.1-196.4h439.2c107 0 194.1 88.1 194.1 196.4V475c0 17.5-14.2 31.7-31.7 31.7s-31.7-14.2-31.7-31.7V272.8c0-73.3-58.6-132.9-130.6-132.9H293.4c-72 0-130.6 59.6-130.6 132.9v452.6c0 73.3 58.6 132.9 130.6 132.9h260.5c17.5 0 31.7 14.2 31.7 31.7 0 17.6-14.2 31.8-31.7 31.8z" p-id="12937"></path><path d="M892.1 341.8H143.5c-17.7 0-32-14.3-32-32s14.3-32 32-32h748.6c17.7 0 32 14.3 32 32s-14.3 32-32 32z" p-id="12938"></path><path d="M317.3 600.4c-27.1 7.4-55.7 14.3-77.4 20.2l-3.3-16.4c9.4-2.3 21.2-5.1 34.2-7.9v-70.8h-28.6v-15.6h28.6V444h-31.4v-15.6h79.7V444h-32.4v65.9H313v15.6h-26.3v67l28.9-7.4 1.7 15.3z m52.9-82.9c0 51.4-6.4 94.6-55 125-2.3-3.3-7.2-9.2-10.7-12 44.7-27.6 50.4-67 50.4-113V409.4h15.3v108.1z m-57.7 27.7c10.2-18.4 11.5-51.4 11.8-83.6l13.8 1.5c-0.5 34-1.8 69.5-13.5 90.7l-12.1-8.6z m158.7 72V633h-103v-15.8h46.3v-81h-29.4v-15.6h29.4v-77.7h-34.2v-15.6h85.1v15.6h-34.8v77.7h30.7v15.6h-30.7v81h40.6z" p-id="12939"></path><path d="M315.3 653.2c-3.4 0-6.7-1.6-8.8-4.6-2.1-3-6.2-7.9-8.5-9.7-2.7-2.2-4.3-5.5-4.1-9s2.1-6.6 5-8.5c4.2-2.6 8.1-5.4 11.7-8.3-11.9 3.2-23.9 6.2-35.6 9.2-11.7 3-22.8 5.8-32.4 8.4-2.8 0.8-5.9 0.3-8.4-1.2s-4.3-4.1-4.8-7l-3.3-16.4c-1.1-5.6 2.4-11.1 7.9-12.5 7.1-1.7 16.1-3.9 26.1-6.1v-51.6h-18c-5.9 0-10.7-4.8-10.7-10.7v-15.6c0-5.9 4.8-10.7 10.7-10.7h18v-44.6h-20.8c-5.9 0-10.7-4.8-10.7-10.7V428c0-5.9 4.8-10.7 10.7-10.7H319c5.9 0 10.7 4.8 10.7 10.7v15.6c0 2.8-1.1 5.3-2.8 7.2l12.3 1.4c1.9 0.2 3.6 0.9 5 1.9v-45c0-5.9 4.8-10.7 10.7-10.7h15.3c5.9 0 10.7 4.8 10.7 10.7v7.2h84.4c5.9 0 10.7 4.8 10.7 10.7v15.6c0 5.9-4.8 10.7-10.7 10.7h-24.1V510h20c5.9 0 10.7 4.8 10.7 10.7v15.6c0 5.9-4.8 10.7-10.7 10.7h-20v59.7h30c5.9 0 10.7 4.8 10.7 10.7v15.8c0 5.9-4.8 10.7-10.7 10.7h-103c-5.9 0-10.7-4.8-10.7-10.7v-15.4c-8.7 12.4-20.5 23.8-36.6 33.9-1.7 1-3.7 1.5-5.6 1.5z m64.8-107.6c-1.5 21.4-5.6 42.6-16.2 61.9 1.3-0.6 2.8-0.9 4.3-0.9h35.6v-59.7h-18.7c-1.8 0-3.5-0.5-5-1.3z m-64.6 28.8c2.1 0 4.2 0.6 6 1.9 2.5 1.7 4.2 4.5 4.6 7.5l1.3 11.3c3.7-5.5 6.7-11.4 9.1-17.8 5.7-15.5 7.3-32.8 7.7-49.8-2.2 11.9-5.4 22.6-10.4 31.5-1.5 2.7-4 4.6-7 5.2-3 0.7-6.1 0-8.6-1.8l-12-8.7c-4.4-3.2-5.7-9.1-3.1-13.8 0.7-1.2 1.3-2.5 1.9-3.9h-7.7v42.6l15.6-4c0.9-0.1 1.7-0.2 2.6-0.2z m106.2-46l0.8 0.8c0.2-0.3 0.5-0.6 0.8-0.8l-0.8-0.8c-0.2 0.3-0.5 0.5-0.8 0.8z m-143.6-10.7c0.2 0.2 0.5 0.4 0.7 0.7 0.2-0.2 0.4-0.5 0.7-0.7-0.2-0.2-0.5-0.4-0.7-0.7-0.3 0.2-0.5 0.5-0.7 0.7z m102.8-64.1v57.2c1.3-0.5 2.7-0.8 4.2-0.8h18.7v-56.4h-22.9z m-83.6 45.6h14.9c0.9-11.8 1.2-24.8 1.3-37.7 0-2.6 1-5 2.6-6.9h-18.9v44.6zM731.7 738.2c-61.1 0-110.8-50.7-110.8-113s49.7-113 110.8-113 110.8 50.7 110.8 113-49.7 113-110.8 113z m0-183.8c-37.9 0-68.7 31.8-68.7 70.9 0 39.1 30.8 70.9 68.7 70.9s68.7-31.8 68.7-70.9c0-39.1-30.8-70.9-68.7-70.9z" p-id="12940"></path><path d="M900.1 907.4c-11.6 0-21.1-9.4-21.1-21.1v-40c0-24.8-10.3-48.2-29-65.9-19-18-44.1-28-70.9-28h-95c-26.7 0-51.9 9.9-70.9 28-18.7 17.8-29 41.2-29 65.9v40c0 11.6-9.4 21.1-21.1 21.1S542 898 542 886.3v-40c0-75 63.7-136 142-136h95c78.3 0 142 61 142 136v40c0.2 11.7-9.3 21.1-20.9 21.1z" p-id="12941"></path><path d="M392.1 243c-14.1 0-25.6-11.5-25.6-25.6V118c0-14.1 11.5-25.6 25.6-25.6s25.6 11.5 25.6 25.6v99.5c0 14.1-11.4 25.5-25.6 25.5zM667.4 243c-14.1 0-25.6-11.5-25.6-25.6V118c0-14.1 11.5-25.6 25.6-25.6S693 103.9 693 118v99.5c0 14.1-11.4 25.5-25.6 25.5z" p-id="12942"></path></svg>