<?xml version="1.0" standalone="no"?><!DOCTYPE svg PUBLIC "-//W3C//DTD SVG 1.1//EN" "http://www.w3.org/Graphics/SVG/1.1/DTD/svg11.dtd"><svg t="1556965568831" class="icon" style="" viewBox="0 0 1024 1024" version="1.1" xmlns="http://www.w3.org/2000/svg" p-id="2865" xmlns:xlink="http://www.w3.org/1999/xlink" width="200" height="200"><defs><style type="text/css"></style></defs><path d="M1023.665067 503.722667a217.216 217.216 0 0 0-0.768-11.904v-0.170667a255.146667 255.146667 0 0 0-42.24-120.064 265.258667 265.258667 0 0 0-36.992-44.330667 268.330667 268.330667 0 0 0-69.973334-48.213333 299.349333 299.349333 0 0 0-130.176-28.501333 313.6 313.6 0 0 0-108.629333 18.944 269.781333 269.781333 0 0 0-77.738667 42.496 275.2 275.2 0 0 0-14.208 12.373333l-3.626666 3.626667-4.992 5.333333h0.042666l-2.389333 2.346667-1.109333 1.194666-6.016 6.272c-4.437333 4.992-8.618667 9.984-12.629334 14.890667v-0.085333l-0.170666-0.128c-8.192 9.941333-15.786667 20.309333-21.333334 29.568-3.797333 5.973333-7.509333 12.074667-11.050666 18.218666l-48.938667 98.944 0.085333 0.042667-2.56 5.034667-5.376 10.922666c-10.709333 21.717333-22.229333 43.392-35.029333 61.226667-28.672 31.445333-61.056 46.848-102.656 46.848-2.901333 0-5.930667-0.128-8.917333-0.341333-25.088-0.981333-46.592-6.912-65.664-18.218667a109.909333 109.909333 0 0 1-42.410667-43.946667 113.450667 113.450667 0 0 1-13.909333-58.410666l0.085333-1.450667c1.322667-32.426667 13.696-57.685333 38.570667-79.402667 6.058667-5.290667 12.416-9.728 19.029333-13.653333 0.896-0.554667 1.877333-1.024 2.773333-1.536 18.517333-10.112 39.552-15.146667 63.658667-15.146667l7.509333 0.213334c38.357333 1.450667 67.925333 13.397333 91.52 36.821333l73.984-132.821333a292.053333 292.053333 0 0 0-59.690666-30.293334c-0.810667-0.298667-1.706667-0.682667-2.56-0.938666-2.645333-0.938667-5.248-1.92-7.936-2.773334a316.8 316.8 0 0 0-73.216-14.848 236.586667 236.586667 0 0 1-1.962667-0.256c-3.882667-0.213333-7.850667-0.682667-11.733333-0.853333a425.216 425.216 0 0 0-12.672-0.298667h-2.346667a298.88 298.88 0 0 0-129.194667 28.586667 263.509333 263.509333 0 0 0-106.752 92.416A256.256 256.256 0 0 0 0.0064 515.712c-0.085333 66.730667 24.234667 125.354667 72.576 174.634667 50.517333 51.669333 116.096 79.530667 194.858667 82.816 5.034667 0.213333 10.026667 0.341333 15.061333 0.341333 44.586667 0 85.802667-7.936 122.794667-23.808 9.258667-3.968 18.218667-8.576 27.392-13.738667 4.992-2.858667 9.728-5.930667 14.421333-9.173333l3.413333-2.346667 5.845334-3.968c6.997333-5.034667 13.525333-10.496 19.925333-16.256l2.218667-2.133333c3.754667-3.541333 7.509333-7.168 11.050666-10.88l13.269334-15.018667 5.034666-6.314666 2.389334-3.456 2.346666-3.370667c19.712-33.109333 83.84-153.642667 83.84-153.642667v-0.256l3.84-7.338666 3.157334-5.76c9.472-17.194667 16.298667-29.397333 25.344-42.24l0.256-0.426667c21.034667-30.592 57.344-52.352 100.096-56.021333 71.68-6.186667 134.485333 40.917333 140.245333 105.173333 5.76 64.298667-47.658667 121.429333-119.381333 127.616a145.792 145.792 0 0 1-43.136-2.730667l-0.384 0.128c-52.565333-10.965333-86.058667-49.28-102.570667-66.474666l-68.992 126.890666s21.461333 21.589333 36.138667 32.384c14.762667 10.794667 33.749333 21.376 48.896 27.989334a305.109333 305.109333 0 0 0 121.088 25.130666c5.162667 0 4.138667 0 9.472-0.213333 78.677333-3.285333 148.864-33.450667 199.466666-85.12 47.914667-49.066667 73.941333-105.088 74.154667-171.434667v-2.005333l-0.469333-10.965333z" fill="" p-id="2866"></path></svg>