<?xml version="1.0" standalone="no"?><!DOCTYPE svg PUBLIC "-//W3C//DTD SVG 1.1//EN" "http://www.w3.org/Graphics/SVG/1.1/DTD/svg11.dtd"><svg t="1556965689235" class="icon" style="" viewBox="0 0 1024 1024" version="1.1" xmlns="http://www.w3.org/2000/svg" p-id="8007" xmlns:xlink="http://www.w3.org/1999/xlink" width="200" height="200"><defs><style type="text/css"></style></defs><path d="M102.4 886.852267C102.4 924.808533 133.256533 955.733333 171.076267 955.733333h681.847466C890.88 955.733333 921.6 925.013333 921.6 886.852267V342.016C921.6 303.991467 890.743467 273.066667 852.923733 273.066667H171.076267C133.12 273.066667 102.4 303.786667 102.4 341.947733v544.904534zM171.076267 204.8h681.847466C928.5632 204.8 989.866667 266.376533 989.866667 341.947733v544.904534c0 75.776-61.2352 137.147733-136.942934 137.147733H171.076267A137.147733 137.147733 0 0 1 34.133333 886.852267V342.016C34.133333 266.171733 95.368533 204.8 171.076267 204.8z" p-id="8008"></path><path d="M741.853867 594.5344L415.880533 413.013333a27.989333 27.989333 0 0 0-26.965333 0A25.8048 25.8048 0 0 0 375.466667 435.541333v362.837334c0 9.284267 5.12 17.885867 13.448533 22.528a27.784533 27.784533 0 0 0 26.965333 0l325.973334-181.4528a25.8048 25.8048 0 0 0 13.5168-22.528 25.8048 25.8048 0 0 0-13.5168-22.391467zM429.397333 753.4592V480.529067L674.474667 616.994133 429.397333 753.4592zM860.842667 100.215467a34.133333 34.133333 0 0 0-48.264534-48.264534L666.282667 198.314667a34.133333 34.133333 0 1 0 48.264533 48.3328l146.363733-146.432zM188.347733 100.215467a34.133333 34.133333 0 0 1 48.264534-48.264534L382.976 198.314667a34.133333 34.133333 0 1 1-48.264533 48.3328L188.416 100.215467z" p-id="8009"></path></svg>