<?xml version="1.0" standalone="no"?><!DOCTYPE svg PUBLIC "-//W3C//DTD SVG 1.1//EN" "http://www.w3.org/Graphics/SVG/1.1/DTD/svg11.dtd"><svg t="1556965721982" class="icon" style="" viewBox="0 0 1024 1024" version="1.1" xmlns="http://www.w3.org/2000/svg" p-id="8887" xmlns:xlink="http://www.w3.org/1999/xlink" width="200" height="200"><defs><style type="text/css"></style></defs><path d="M879.284682 703.819294C870.196932 704.933647 861.259646 708.216471 853.014471 713.396706L669.935483 821.157647C666.715654 778.300235 635.269641 752.941176 584.414368 752.941176L504.279694 752.941176C489.564765 752.941176 468.500453 745.562353 448.098159 738.454588 425.138056 730.413176 403.471902 722.823529 384.935307 722.823529L365.03593 722.823529C331.423301 722.823529 303.347576 733.756235 280.808761 742.580706 266.545212 748.152471 254.237633 752.941176 245.661446 752.941176L240.786565 752.941176 240.786565 734.027294C240.786565 710.475294 223.453642 692.705882 200.463447 692.705882L101.310708 692.705882C78.29042 692.705882 60.235294 710.866824 60.235294 734.027294L60.235294 981.172706C60.235294 1004.393412 79.042717 1024 101.310708 1024L200.463447 1024C218.518573 1024 233.624696 1011.260235 238.770408 993.882353L671.379893 993.882353C681.55095 993.882353 690.759063 991.924706 698.161667 988.220235 702.344436 987.075765 706.286472 985.569882 710.980807 983.130353L931.644549 842.932706C963.24102 823.386353 973.3218 779.324235 953.792172 746.887529L947.653427 736.376471C932.818131 712.101647 905.705349 699.361882 879.284682 703.819294ZM131.402586 963.764706C125.775405 963.764706 120.419051 957.590588 120.419051 951.055059L120.419051 764.144941C120.419051 757.549176 124.932831 752.941176 131.402586 752.941176L170.371569 752.941176C176.690863 752.941176 180.602808 757.248 180.602808 764.144941L180.602808 933.647059 180.602808 951.055059C180.602808 957.048471 176.389945 963.764706 170.371569 963.764706L131.402586 963.764706 131.402586 963.764706ZM899.307014 802.738971 696.205694 926.840471C694.159447 927.864471 691.902554 928.677647 689.194285 929.310118L685.25225 930.876235C682.092601 932.653176 677.187626 933.647059 670.537321 933.647059L240.786565 933.647059 240.786565 813.176471 245.661446 813.176471C259.894904 813.176471 274.639926 807.424 291.702022 800.768 312.97698 792.485647 337.110667 783.058824 365.03593 783.058824L384.935307 783.058824C398.356284 783.058824 418.608116 790.136471 438.167838 796.973176 460.917299 804.954353 484.449147 813.176471 504.279694 813.176471L584.414368 813.176471C621.397284 813.176471 633.175694 807.997437 633.175694 842.933908 633.175694 859.756954 610.142922 873.411765 584.594917 873.441882L571.786888 873.441882C555.159079 873.441882 555.041837 903.559529 571.732058 903.559529L584.414368 903.559529C586.695581 903.559529 647.974523 900.170695 666.535102 888.289882L868.602064 769.325176C873.507039 766.253176 878.201374 764.476235 883.587819 763.783529 898.724033 761.404235 905.808851 769.325176 905.808851 769.325176 916.942848 787.757176 899.307014 802.738971 899.307014 802.738971ZM359.485832 266.067555 444.120916 366.403033C453.123951 380.27995 446.731824 391.529412 430.345915 391.529412L392.038165 391.529412C375.427406 391.529412 361.961728 404.897575 361.961728 421.647059 361.961728 438.280574 375.303057 451.764706 392.335535 451.764706L451.955435 451.764706C468.730425 451.764706 482.329242 465.346762 482.329242 481.647116L482.329242 483.081355C482.329242 499.584955 468.98791 512.963765 451.955435 512.963765L392.335535 512.963765C375.560544 512.963765 361.961728 526.710823 361.961728 543.29406L361.961728 541.904998C361.961728 558.655958 375.303057 572.235294 392.335535 572.235294L451.955435 572.235294C468.730425 572.235294 482.329242 585.567181 482.329242 602.321516 482.329242 619.000528 495.685966 632.470588 512.42112 632.470588 529.040405 632.470588 542.512995 619.138702 542.512995 602.384366 542.512995 585.705355 555.854327 572.235294 572.886802 572.235294L632.506702 572.235294C649.281693 572.235294 662.880509 558.488236 662.880509 541.904998L662.880509 543.29406C662.880509 526.543101 649.53918 512.963765 632.506702 512.963765L572.886802 512.963765C556.111812 512.963765 542.512995 499.381709 542.512995 483.081355L542.512995 481.647116C542.512995 465.143516 555.854327 451.764706 572.886802 451.764706L632.506702 451.764706C649.281693 451.764706 662.880509 438.396542 662.880509 421.647059 662.880509 405.013543 649.189981 391.529412 632.804072 391.529412L594.496322 391.529412C577.885563 391.529412 571.753644 380.225449 580.721321 366.403033L665.356405 266.067555C674.359441 252.190639 667.90387 240.941176 651.355247 240.941176L632.999349 240.941176C616.263686 240.941176 595.612976 252.724657 587.177818 266.756085L527.940054 335.177255C519.369186 349.434434 505.337344 349.208681 496.902186 335.177255L437.664419 266.756085C429.093548 252.498905 408.391511 240.941176 391.842888 240.941176L373.48699 240.941176C356.75133 240.941176 350.518155 252.245139 359.485832 266.067555ZM722.823529 120.470588C722.823529 54.071903 668.980019 0 602.560684 0L421.439316 0C355.006642 0 301.176471 53.93652 301.176471 120.470588L301.176471 150.588235C301.176471 167.221752 314.544634 180.705882 331.294118 180.705882 347.927633 180.705882 361.411765 167.337718 361.411765 150.588235L361.411765 120.470588C361.411765 87.174657 388.302613 60.235294 421.439316 60.235294L602.560684 60.235294C635.632562 60.235294 662.588235 87.258491 662.588235 120.470588L662.588235 150.588235C662.588235 167.221752 675.956399 180.705882 692.705882 180.705882 709.339398 180.705882 722.823529 167.337718 722.823529 150.588235L722.823529 120.470588ZM903.529412 240.850964C903.529412 207.660539 876.547081 180.705882 843.262693 180.705882L813.176471 180.705882C796.542955 180.705882 783.058824 167.221752 783.058824 150.588235 783.058824 133.954718 796.542955 120.470588 813.176471 120.470588L843.28832 120.470588C909.824238 120.470588 963.764706 174.397329 963.764706 240.919335L963.764706 602.396371C963.764706 619.005901 950.396542 632.470588 933.647059 632.470588 917.013543 632.470588 903.529412 618.990155 903.529412 602.391118L903.529412 240.850964ZM120.470588 210.922907C120.470588 194.234505 133.802475 180.705882 150.556811 180.705882L210.823529 180.705882C227.457045 180.705882 240.941176 167.221752 240.941176 150.588235 240.941176 133.954718 227.457045 120.470588 210.823529 120.470588L180.705882 120.470588C114.171814 120.470588 60.235294 174.284639 60.235294 240.919335L60.235294 602.396371C60.235294 619.005901 73.603458 632.470588 90.352941 632.470588L90.352941 632.470588C106.986457 632.470588 120.470588 618.922385 120.470588 602.153918L120.470588 210.922907Z" p-id="8888"></path></svg>