<?xml version="1.0" standalone="no"?><!DOCTYPE svg PUBLIC "-//W3C//DTD SVG 1.1//EN" "http://www.w3.org/Graphics/SVG/1.1/DTD/svg11.dtd"><svg t="1556965934496" class="icon" style="" viewBox="0 0 1027 1024" version="1.1" xmlns="http://www.w3.org/2000/svg" p-id="9148" xmlns:xlink="http://www.w3.org/1999/xlink" width="200.5859375" height="200"><defs><style type="text/css"></style></defs><path d="M1006.933333 1024H17.066667c-10.24 0-17.066667-6.826667-17.066667-17.066667v-40.96c0-116.053333 75.093333-218.453333 184.32-259.413333l109.226667-54.613333c6.826667-3.413333 13.653333-3.413333 20.48 3.413333 54.613333 58.026667 122.88 92.16 197.973333 92.16 71.68 0 143.36-34.133333 197.973333-92.16 6.826667-6.826667 13.653333-6.826667 20.48-3.413333l116.053334 64.853333c109.226667 37.546667 180.906667 143.36 180.906666 256v30.72c0 3.413333-3.413333 10.24-3.413333 13.653333s-13.653333 6.826667-17.066667 6.826667zM34.133333 989.866667h955.733334v-13.653334c0-102.4-64.853333-191.146667-160.426667-225.28h-3.413333l-105.813334-58.026666C658.773333 750.933333 587.093333 785.066667 508.586667 785.066667c-78.506667 0-153.6-34.133333-211.626667-95.573334l-98.986667 51.2c-98.986667 34.133333-163.84 126.293333-163.84 225.28v23.893334zM426.666667 409.6h-34.133334c-10.24 0-17.066667-6.826667-17.066666-17.066667s6.826667-17.066667 17.066666-17.066666h34.133334c10.24 0 17.066667 6.826667 17.066666 17.066666s-6.826667 17.066667-17.066666 17.066667zM631.466667 409.6h-34.133334c-10.24 0-17.066667-6.826667-17.066666-17.066667s6.826667-17.066667 17.066666-17.066666h34.133334c10.24 0 17.066667 6.826667 17.066666 17.066666s-6.826667 17.066667-17.066666 17.066667z" fill="" p-id="9149"></path><path d="M508.586667 716.8c-105.813333 0-204.8-92.16-242.346667-221.866667-34.133333 0-61.44-44.373333-61.44-102.4 0-54.613333 13.653333-88.746667 34.133333-98.986666V238.933333c0-10.24 6.826667-17.066667 17.066667-17.066666s17.066667 6.826667 17.066667 17.066666v58.026667c0 10.24 0 17.066667-3.413334 20.48-3.413333 3.413333-10.24 6.826667-13.653333 6.826667-6.826667 0-17.066667 20.48-17.066667 68.266666 0 40.96 17.066667 68.266667 27.306667 68.266667h3.413333c3.413333-3.413333 10.24-3.413333 17.066667 0 3.413333 3.413333 10.24 6.826667 10.24 10.24 30.72 122.88 122.88 211.626667 215.04 211.626667 102.4 0 194.56-81.92 221.866667-194.56 0-6.826667 3.413333-10.24 10.24-10.24 3.413333-3.413333 10.24 0 17.066666 0h3.413334c10.24 0 27.306667-27.306667 27.306666-68.266667 0-47.786667-10.24-68.266667-17.066666-68.266667-17.066667 0-23.893333-6.826667-23.893334-17.066666v-3.413334V238.933333c0-10.24 6.826667-17.066667 17.066667-17.066666s17.066667 6.826667 17.066667 17.066666v71.68c20.48 10.24 34.133333 44.373333 34.133333 98.986667 0 58.026667-27.306667 102.4-61.44 102.4-37.546667 119.466667-139.946667 204.8-249.173333 204.8z" fill="" p-id="9150"></path><path d="M529.066667 170.666667l-375.466667-34.133334c-10.24 0-17.066667-6.826667-17.066667-17.066666 0-6.826667 3.413333-13.653333 13.653334-17.066667l341.333333-102.4h6.826667l375.466666 34.133333c6.826667 0 13.653333 6.826667 13.653334 13.653334s-3.413333 17.066667-13.653334 17.066666l-341.333333 102.4c0 3.413333-3.413333 3.413333-3.413333 3.413334zM242.346667 109.226667l283.306666 27.306666 252.586667-75.093333-279.893333-27.306667-256 75.093334z" fill="" p-id="9151"></path><path d="M512 307.2c-170.666667 0-259.413333-51.2-262.826667-54.613333-6.826667-3.413333-10.24-6.826667-10.24-13.653334V136.533333c0-10.24 6.826667-17.066667 17.066667-17.066666s17.066667 6.826667 17.066667 17.066666v92.16C300.373333 238.933333 382.293333 273.066667 512 273.066667s211.626667-34.133333 238.933333-44.373334V85.333333c0-10.24 6.826667-17.066667 17.066667-17.066666s17.066667 6.826667 17.066667 17.066666V238.933333c0 6.826667-3.413333 10.24-10.24 13.653334C771.413333 256 682.666667 307.2 512 307.2z" fill="" p-id="9152"></path><path d="M870.4 409.6c-6.826667 0-13.653333-3.413333-17.066667-10.24l-34.133333-102.4v-13.653333l34.133333-64.853334V51.2c0-10.24 6.826667-17.066667 17.066667-17.066667s17.066667 6.826667 17.066667 17.066667v167.253333l30.72 64.853334c3.413333 3.413333 3.413333 6.826667 3.413333 13.653333l-34.133333 102.4c-3.413333 6.826667-10.24 10.24-17.066667 10.24zM853.333333 290.133333l17.066667 47.786667 17.066667-47.786667-17.066667-30.72-17.066667 30.72z" fill="" p-id="9153"></path></svg>